<?xml version="1.0" standalone="no"?><svg xmlns:xlink="http://www.w3.org/1999/xlink" xmlns="http://www.w3.org/2000/svg" viewBox="0 0 1920 1920" preserveAspectRatio="xMaxYMax slice"><g transform="scale(2.3132530120481927)"><rect x="0" y="0" width="830" height="830" fill="#ffffff"/><rect x="383.875" y="20.75" width="10.375" height="10.375" fill="#ffffff"/><circle cx="386.475" cy="23.345" r="2.595" fill="#f4f6fa"/><circle cx="391.65500000000003" cy="23.345" r="2.595" fill="#edf0f6"/><circle cx="386.475" cy="28.535" r="2.595" fill="#fdfefe"/><circle cx="391.65500000000003" cy="28.535" r="2.595" fill="#d6e5f4"/><rect x="695.125" y="20.75" width="10.375" height="10.375" fill="#ffffff"/><circle cx="697.725" cy="23.345" r="2.595" fill="#eaf2f9"/><circle cx="702.905" cy="23.345" r="2.595" fill="#fafbfc"/><circle cx="697.725" cy="28.535" r="2.595" fill="#eef1f7"/><circle cx="702.905" cy="28.535" r="2.595" fill="#dfebf6"/><rect x="383.875" y="124.5" width="10.375" height="10.375" fill="#ffffff"/><circle cx="386.475" cy="127.095" r="2.595" fill="#fafbfc"/><circle cx="391.65500000000003" cy="127.095" r="2.595" fill="#ebeef5"/><circle cx="386.475" cy="132.285" r="2.595" fill="#eef4fa"/><circle cx="391.65500000000003" cy="132.285" r="2.595" fill="#e8ecf4"/><rect x="695.125" y="124.5" width="10.375" height="10.375" fill="#ffffff"/><circle cx="697.725" cy="127.095" r="2.595" fill="#ecf3fa"/><circle cx="702.905" cy="127.095" r="2.595" fill="#d9e7f5"/><circle cx="697.725" cy="132.285" r="2.595" fill="#ebeef5"/><circle cx="702.905" cy="132.285" r="2.595" fill="#e9ecf4"/><rect x="20.75" y="176.375" width="10.375" height="10.375" fill="#ffffff"/><circle cx="23.345" cy="178.975" r="2.595" fill="#e9ecf4"/><circle cx="28.535" cy="178.975" r="2.595" fill="#f9fbfd"/><circle cx="23.345" cy="184.155" r="2.595" fill="#f8fbfd"/><circle cx="28.535" cy="184.155" r="2.595" fill="#e6e9f2"/><rect x="72.625" y="176.375" width="10.375" height="10.375" fill="#ffffff"/><circle cx="75.225" cy="178.975" r="2.595" fill="#f5f9fc"/><circle cx="80.405" cy="178.975" r="2.595" fill="#f3f8fc"/><circle cx="75.225" cy="184.155" r="2.595" fill="#f6f9fd"/><circle cx="80.405" cy="184.155" r="2.595" fill="#e9ecf4"/><rect x="435.75" y="176.375" width="10.375" height="10.375" fill="#ffffff"/><circle cx="438.345" cy="178.975" r="2.595" fill="#fafbfd"/><circle cx="443.535" cy="178.975" r="2.595" fill="#eaf2f9"/><circle cx="438.345" cy="184.155" r="2.595" fill="#f8f9fb"/><circle cx="443.535" cy="184.155" r="2.595" fill="#dce9f6"/><rect x="280.125" y="228.25" width="10.375" height="10.375" fill="#ffffff"/><circle cx="282.725" cy="230.845" r="2.595" fill="#ebeef5"/><circle cx="287.90500000000003" cy="230.845" r="2.595" fill="#deeaf6"/><circle cx="282.725" cy="236.035" r="2.595" fill="#e5e9f2"/><circle cx="287.90500000000003" cy="236.035" r="2.595" fill="#d8e7f4"/><rect x="591.375" y="228.25" width="10.375" height="10.375" fill="#ffffff"/><circle cx="593.975" cy="230.845" r="2.595" fill="#fafbfd"/><circle cx="599.155" cy="230.845" r="2.595" fill="#e8ecf4"/><circle cx="593.975" cy="236.035" r="2.595" fill="#e8ebf3"/><circle cx="599.155" cy="236.035" r="2.595" fill="#f9fbfd"/><rect x="20.75" y="280.125" width="10.375" height="10.375" fill="#ffffff"/><circle cx="23.345" cy="282.725" r="2.595" fill="#d5e5f4"/><circle cx="28.535" cy="282.725" r="2.595" fill="#fafbfd"/><circle cx="23.345" cy="287.90500000000003" r="2.595" fill="#eef1f7"/><circle cx="28.535" cy="287.90500000000003" r="2.595" fill="#f7fafd"/><rect x="20.75" y="332" width="10.375" height="10.375" fill="#ffffff"/><circle cx="23.345" cy="334.595" r="2.595" fill="#e7eaf3"/><circle cx="28.535" cy="334.595" r="2.595" fill="#fafcfe"/><circle cx="23.345" cy="339.785" r="2.595" fill="#edf0f6"/><circle cx="28.535" cy="339.785" r="2.595" fill="#fafbfd"/><rect x="176.375" y="332" width="10.375" height="10.375" fill="#ffffff"/><circle cx="178.975" cy="334.595" r="2.595" fill="#d2e3f3"/><circle cx="184.155" cy="334.595" r="2.595" fill="#edf0f6"/><circle cx="178.975" cy="339.785" r="2.595" fill="#f2f4f9"/><circle cx="184.155" cy="339.785" r="2.595" fill="#fdfeff"/><rect x="487.625" y="332" width="10.375" height="10.375" fill="#ffffff"/><circle cx="490.225" cy="334.595" r="2.595" fill="#f0f3f8"/><circle cx="495.40500000000003" cy="334.595" r="2.595" fill="#f6f9fd"/><circle cx="490.225" cy="339.785" r="2.595" fill="#fafcfe"/><circle cx="495.40500000000003" cy="339.785" r="2.595" fill="#eff5fb"/><rect x="539.5" y="332" width="10.375" height="10.375" fill="#ffffff"/><circle cx="542.095" cy="334.595" r="2.595" fill="#f3f4f9"/><circle cx="547.2850000000001" cy="334.595" r="2.595" fill="#f4f6fa"/><circle cx="542.095" cy="339.785" r="2.595" fill="#fcfdfe"/><circle cx="547.2850000000001" cy="339.785" r="2.595" fill="#eef4fa"/><rect x="798.875" y="435.75" width="10.375" height="10.375" fill="#ffffff"/><circle cx="801.475" cy="438.345" r="2.595" fill="#dfebf6"/><circle cx="806.655" cy="438.345" r="2.595" fill="#fafbfd"/><circle cx="801.475" cy="443.535" r="2.595" fill="#e6eaf3"/><circle cx="806.655" cy="443.535" r="2.595" fill="#eceff5"/><rect x="124.5" y="487.625" width="10.375" height="10.375" fill="#ffffff"/><circle cx="127.095" cy="490.225" r="2.595" fill="#fbfcfe"/><circle cx="132.285" cy="490.225" r="2.595" fill="#fefefe"/><circle cx="127.095" cy="495.40500000000003" r="2.595" fill="#f6f7fa"/><circle cx="132.285" cy="495.40500000000003" r="2.595" fill="#e4eef8"/><rect x="72.625" y="539.5" width="10.375" height="10.375" fill="#ffffff"/><circle cx="75.225" cy="542.095" r="2.595" fill="#dfebf6"/><circle cx="80.405" cy="542.095" r="2.595" fill="#dbe9f5"/><circle cx="75.225" cy="547.2850000000001" r="2.595" fill="#e5eff8"/><circle cx="80.405" cy="547.2850000000001" r="2.595" fill="#fafcfe"/><rect x="228.25" y="539.5" width="10.375" height="10.375" fill="#ffffff"/><circle cx="230.845" cy="542.095" r="2.595" fill="#d1e3f3"/><circle cx="236.035" cy="542.095" r="2.595" fill="#e4e8f2"/><circle cx="230.845" cy="547.2850000000001" r="2.595" fill="#e4e8f1"/><circle cx="236.035" cy="547.2850000000001" r="2.595" fill="#f8f9fc"/><rect x="383.875" y="591.375" width="10.375" height="10.375" fill="#ffffff"/><circle cx="386.475" cy="593.975" r="2.595" fill="#ebf3fa"/><circle cx="391.65500000000003" cy="593.975" r="2.595" fill="#eef0f6"/><circle cx="386.475" cy="599.155" r="2.595" fill="#ebf3fa"/><circle cx="391.65500000000003" cy="599.155" r="2.595" fill="#f6f7fa"/><rect x="695.125" y="643.25" width="10.375" height="10.375" fill="#ffffff"/><circle cx="697.725" cy="645.845" r="2.595" fill="#f9fafc"/><circle cx="702.905" cy="645.845" r="2.595" fill="#e5e9f2"/><circle cx="697.725" cy="651.0350000000001" r="2.595" fill="#d3e3f3"/><circle cx="702.905" cy="651.0350000000001" r="2.595" fill="#f1f3f8"/><rect x="798.875" y="695.125" width="10.375" height="10.375" fill="#ffffff"/><circle cx="801.475" cy="697.725" r="2.595" fill="#d1e2f3"/><circle cx="806.655" cy="697.725" r="2.595" fill="#e5e9f2"/><circle cx="801.475" cy="702.905" r="2.595" fill="#f4f5f9"/><circle cx="806.655" cy="702.905" r="2.595" fill="#dfebf6"/><rect x="280.125" y="747" width="10.375" height="10.375" fill="#ffffff"/><circle cx="282.725" cy="749.595" r="2.595" fill="#eceff5"/><circle cx="287.90500000000003" cy="749.595" r="2.595" fill="#e6e9f2"/><circle cx="282.725" cy="754.7850000000001" r="2.595" fill="#fdfdfe"/><circle cx="287.90500000000003" cy="754.7850000000001" r="2.595" fill="#e6eff8"/><rect x="539.5" y="747" width="10.375" height="10.375" fill="#ffffff"/><circle cx="542.095" cy="749.595" r="2.595" fill="#d3e4f3"/><circle cx="547.2850000000001" cy="749.595" r="2.595" fill="#f4f5f9"/><circle cx="542.095" cy="754.7850000000001" r="2.595" fill="#f1f3f8"/><circle cx="547.2850000000001" cy="754.7850000000001" r="2.595" fill="#fcfdfe"/><rect x="228.25" y="798.875" width="10.375" height="10.375" fill="#ffffff"/><circle cx="230.845" cy="801.475" r="2.595" fill="#f7f8fb"/><circle cx="236.035" cy="801.475" r="2.595" fill="#e6f0f8"/><circle cx="230.845" cy="806.655" r="2.595" fill="#e7f0f9"/><circle cx="236.035" cy="806.655" r="2.595" fill="#d5e5f4"/><rect x="487.625" y="798.875" width="10.375" height="10.375" fill="#ffffff"/><circle cx="490.225" cy="801.475" r="2.595" fill="#dce9f6"/><circle cx="495.40500000000003" cy="801.475" r="2.595" fill="#feffff"/><circle cx="490.225" cy="806.655" r="2.595" fill="#d3e4f3"/><circle cx="495.40500000000003" cy="806.655" r="2.595" fill="#eceff5"/></g></svg>